<?xml version="1.0" encoding="UTF-8" standalone="no" ?>
<!DOCTYPE svg PUBLIC "-//W3C//DTD SVG 1.1//EN" "http://www.w3.org/Graphics/SVG/1.1/DTD/svg11.dtd">
<svg xmlns="http://www.w3.org/2000/svg" xmlns:xlink="http://www.w3.org/1999/xlink" version="1.1" width="500" height="500" viewBox="0 0 500 500" xml:space="preserve">
<desc>Created with Fabric.js 5.3.0</desc>
<defs>
</defs>
<g transform="matrix(1.6498668131 0 0 1.5720377807 250 250)" id="fLUp-CKG1CLHMIm7HTF8z"  >
<path style="stroke: rgb(0,0,0); stroke-width: 14; stroke-dasharray: none; stroke-linecap: butt; stroke-dashoffset: 0; stroke-linejoin: miter; stroke-miterlimit: 4; fill: rgb(255,255,255); fill-opacity: 0; fill-rule: nonzero; opacity: 1;"  transform=" translate(0, 0)" d="M -118.67305 -108.57002 C -118.67305 -127.61305 -103.96385000000001 -143.05048 -85.81914 -143.05048 L 87.74888999999999 -143.05048 L 87.74888999999999 -143.05048 C 104.82782999999999 -143.05048 118.67304999999999 -128.51981 118.67304999999999 -110.59531999999999 L 118.67304999999999 134.02395 L 118.67304999999999 134.02395 C 118.67304999999999 136.28762 117.47892999999999 138.36525 115.57103 139.42108000000002 C 113.66313 140.47691 111.35507 140.33740000000003 109.57529 139.05867 L 13.036360000000002 69.69759 L 13.036360000000002 69.69759 C 7.170600000000002 65.48317 -0.5633099999999978 65.49894 -6.413419999999999 69.73723000000001 L -105.44397000000001 141.48295000000002 L -105.44397000000001 141.48295000000002 C -108.02463 143.35259000000002 -111.38044000000001 143.56573000000003 -114.15710000000001 142.03635000000003 C -116.93376000000002 140.50697000000002 -118.67305000000002 137.48745000000002 -118.67305000000002 134.19638000000003 z" stroke-linecap="round" />
</g>
<g transform="matrix(-16.4412821267 0 0 1 363.52980659 127.7489740082)" id="RuEMJWn1a4jvanZnn_D4P"  >
<path style="stroke: rgb(0,0,0); stroke-width: 1; stroke-dasharray: none; stroke-linecap: butt; stroke-dashoffset: 0; stroke-linejoin: miter; stroke-miterlimit: 4; fill: rgb(255,255,255); fill-opacity: 0; fill-rule: nonzero; opacity: 1;"  transform=" translate(0, 0)" d="M 0 0 z" stroke-linecap="round" />
</g>
</svg>